<svg height="72" viewBox="0 0 72 72" width="72" xmlns="http://www.w3.org/2000/svg" xmlns:xlink="http://www.w3.org/1999/xlink"><linearGradient id="a" x1="50%" x2="50%" y1="0%" y2="100%"><stop offset="0" stop-color="#f13672"/><stop offset="1" stop-color="#de193e"/></linearGradient><g fill="none" fill-rule="evenodd" transform="translate(6 11)"><path d="m55.7336932 0h-51.46918578c-2.35537562 0-4.26450742 1.89496886-4.26450742 4.23066965v42.53866065c0 2.3374852 1.9091318 4.2306697 4.26450742 4.2306697h51.46918578c2.3553756 0 4.2663068-1.8931845 4.2663068-4.2306697v-42.53866065c0-2.33570079-1.9109312-4.23066965-4.2663068-4.23066965m0 2.67650969c.8636977 0 1.5672515.69767686 1.5672515 1.55415996v42.53866065c0 .8564831-.7035538 1.55416-1.5672515 1.55416h-51.46918578c-.86189833 0-1.56545209-.6976769-1.56545209-1.55416v-42.53866065c0-.8564831.70355376-1.55415996 1.56545209-1.55415996z" fill="url(#a)"/><g fill="#000"><path d="m8.45452092 20.6000245h1.86054878c0 .7065985.3562753 1.0099363.9302744 1.0099363.5991903 0 .8906883-.3408089.8906883-.7833252 0-1.4649429-3.49077824-1.6415926-3.49077824-4.332377 0-1.3525295.95726496-2.3374851 2.60008994-2.3374851 1.642825 0 2.6378768.9724652 2.6378768 2.6033518h-1.8623482c0-.5816948-.2663068-.8725422-.7881242-.8725422-.471435 0-.7521367.2515919-.7521367.656637 0 1.3900007 3.5411606 1.4792177 3.5411606 4.2949059 0 1.454237-1.0310392 2.5141348-2.8016195 2.5141348-1.6950067 0-2.76563198-.9706809-2.76563198-2.7532363m10.02303198-.593293-.2033289-1.0099363c-.1151597-.6334406-.2681061-1.7058289-.3580747-2.4267021h-.0503823c-.0881692.7208732-.22852 1.7932615-.3562753 2.4267021l-.2033289 1.0099363zm.3562753 1.7058289h-1.88574l-.291498 1.4649429h-1.8731444l2.1412506-8.843188h1.9361223l2.1394512 8.843188h-1.8731444zm5.3101214-7.3777098v7.1373592h2.6504724v1.7058288h-4.4588395v-8.843188zm4.1774179-.0008922.8007198 4.1807082c.1295546.645931.2825011 1.7308096.3706702 2.4641732h.0503824c.0899685-.7333636.2411156-1.8182422.3706703-2.4641732l.8025191-4.1807082h1.871345l-2.11426 8.8431881h-1.9109312l-2.11426-8.8431881zm8.1112011 5.6727731-.2033288-1.0099363c-.1151597-.6334406-.2681062-1.7058289-.3580747-2.4267021h-.0503824c-.0881691.7208732-.22852 1.7932615-.3562753 2.4267021l-.2033288 1.0099363zm.3562753 1.7058289h-1.88574l-.291498 1.4649429h-1.8731444l2.1412506-8.843188h1.9361224l2.1394512 8.843188h-1.8731444zm3.0817814-1.2388672v-3.4366384c0-1.8574977 1.0454341-2.8549437 2.82861-2.8549437 1.7201979 0 2.6612685.997446 2.7260459 2.8549437h-1.8083671c-.0395862-.7958156-.2950967-1.1241341-.9176788-1.1241341-.6117859 0-.94287.3283185-.94287 1.1241341v3.4366384c0 .7958156.3184885 1.1241341.9554656 1.1241341.6621682 0 .9806567-.3283185.9806567-1.1241341v-.6316563h-1.0706253v-1.5916311h2.8538012v2.2232874c-.0503823 1.8574978-1.0436347 2.8549437-2.7890238 2.8549437-1.7705803 0-2.8160144-.9974459-2.8160144-2.8549437m11.9848853.9985166v1.7058288h-4.7269456v-8.843188h4.5991903v1.7040445h-2.7908232v1.832517h2.5353126v1.6415926h-2.5353126v1.9592051zm-27.6169141 5.863519h-.9374719v3.8488209h-.6621682v-3.8488209h-.9320738v-.6120286h2.5317139zm1.4852002 3.8488209h.6477733v-4.4608495h-.6477733zm4.6965362-3.8488209h-.9374719v3.8488209h-.6621682v-3.8488209h-.9320738v-.6120286h2.5317139zm3.6242915 3.2367924v.6120285h-2.1394512v-4.4608495h.6477733v3.848821zm3.7261358.0060667v.6048912h-2.2672064v-4.4590651h2.2024291v.6048912h-1.5546559v1.2936463h1.4322987v.5924008h-1.4322987v1.3632356z"/><path d="m21.5298246 36.6651494h-7.7480882c-.3328835 0-.6045884.267651-.6045884.5995382 0 .3301028.2717049.5995381.6045884.5995381h7.7480882c.3328835 0 .602789-.2694353.602789-.5995381 0-.3318872-.2699055-.5995382-.602789-.5995382"/><path d="m33.8733243 6.68342313h-7.7462888c-.3346828 0-.6045884.26765097-.6045884.59953817 0 .33010287.2699056.59953818.6045884.59953818h7.7462888c.3346829 0 .6045884-.26943531.6045884-.59953818 0-.3318872-.2699055-.59953817-.6045884-.59953817"/><path d="m46.2166442 36.6651494h-2.2240216c-.3346829 0-.6045884.267651-.6045884.5995382 0 .3301028.2699055.5995381.6045884.5995381h2.2240216c.3346828 0 .6045884-.2694353.6045884-.5995381 0-.3318872-.2699056-.5995382-.6045884-.5995382"/><path d="m41.4889789 36.6651494h-17.4556906c-.3346828 0-.6045883.267651-.6045883.5995382 0 .3301028.2699055.5995381.6045883.5995381h17.4556906c.3346828 0 .6045884-.2694353.6045884-.5995381 0-.3318872-.2699056-.5995382-.6045884-.5995382"/><path d="m40.088529 43.1464068h9.5906433c.3346829 0 .6045884-.2676509.6045884-.5995381 0-.3301029-.2699055-.5995382-.6045884-.5995382h-9.5906433c-.3346828 0-.6045884.2694353-.6045884.5995382 0 .3318872.2699056.5995381.6045884.5995381"/><path d="m10.3206478 43.1464068h2.9311741c.3346828 0 .6045884-.2676509.6045884-.5995381 0-.3301029-.2699056-.5995382-.6045884-.5995382h-2.9311741c-.33468289 0-.60458842.2694353-.60458842.5995382 0 .3318872.26990553.5995381.60458842.5995381"/><path d="m16.0219523 43.1464068h21.2973459c.3328835 0 .6045884-.2676509.6045884-.5995381 0-.3301029-.2717049-.5995382-.6045884-.5995382h-21.2973459c-.3346828 0-.6045884.2694353-.6045884.5995382 0 .3318872.2699056.5995381.6045884.5995381"/></g></g></svg>